<?xml version="1.0" encoding="UTF-8" standalone="no"?>
<!-- Created with Inkscape (http://www.inkscape.org/) -->

<svg
   width="1920"
   height="1080"
   viewBox="0 0 507.99998 285.75"
   version="1.1"
   id="svg1"
   inkscape:version="1.3 (0e150ed, 2023-07-21)"
   sodipodi:docname="LevelCollider.svg"
   xmlns:inkscape="http://www.inkscape.org/namespaces/inkscape"
   xmlns:sodipodi="http://sodipodi.sourceforge.net/DTD/sodipodi-0.dtd"
   xmlns="http://www.w3.org/2000/svg"
   xmlns:svg="http://www.w3.org/2000/svg">
  <sodipodi:namedview
     id="namedview1"
     pagecolor="#ffffff"
     bordercolor="#000000"
     borderopacity="0.25"
     inkscape:showpageshadow="2"
     inkscape:pageopacity="0.0"
     inkscape:pagecheckerboard="0"
     inkscape:deskcolor="#d1d1d1"
     inkscape:document-units="mm"
     showguides="false"
     inkscape:zoom="0.5946522"
     inkscape:cx="505.33741"
     inkscape:cy="649.95976"
     inkscape:window-width="1440"
     inkscape:window-height="872"
     inkscape:window-x="0"
     inkscape:window-y="28"
     inkscape:window-maximized="0"
     inkscape:current-layer="layer16" />
  <defs
     id="defs1" />
  <g
     inkscape:label="TopEdge"
     inkscape:groupmode="layer"
     id="layer1">
    <path
       style="fill:#392d1e;fill-opacity:1;stroke-width:0.899999"
       d="m 222.02187,19.217004 c 0,0 13.01314,-6.068381 20.02015,-6.617499 14.08603,-1.103879 41.82701,6.871182 41.82701,6.871182 l 14.68088,0.06022 c 0,0 35.56038,-8.276748 53.39343,-6.444114 7.00621,0.720001 20.02374,6.745249 20.02374,6.745249 0,0 34.84466,-8.950292 52.05857,-5.9864 6.34679,1.092789 11.02542,7.287719 17.35057,8.499441 12.71199,2.435259 38.71455,-2.98497 38.71455,-2.98497 l 46.71575,1.107041 -1.33479,-39.599478 -542.379372,1.779752 1.334814,35.595036 c 0,0 34.098904,-5.476949 51.168828,-4.239499 3.615737,0.262115 7.761666,3.718442 11.944673,4.489918 2.50133,0.461323 7.630443,0.03975 7.630443,0.03975 l 50.720244,0.208041 c 0,0 13.77024,-4.484468 20.91325,-4.731887 10.79924,-0.374063 21.30737,6.228048 32.03713,4.949074 7.32472,-0.873098 20.46338,-8.424631 20.46338,-8.424631"
       id="path1-3"
       sodipodi:nodetypes="csccscsscccccsaccssc"
       transform="translate(0.8894423,4.8795673)" />
    <path
       style="fill:#6c5739;fill-opacity:1;stroke-width:0.899999"
       d="m 222.02187,19.217004 c 0,0 13.01314,-6.068381 20.02015,-6.617499 14.08603,-1.103879 41.82701,6.871182 41.82701,6.871182 l 14.68088,0.06022 c 0,0 35.56038,-8.276748 53.39343,-6.444114 7.00621,0.720001 20.02374,6.745249 20.02374,6.745249 0,0 34.84466,-8.950292 52.05857,-5.9864 6.34679,1.092789 11.02542,7.287719 17.35057,8.499441 12.71199,2.435259 38.71455,-2.98497 38.71455,-2.98497 l 46.71575,1.107041 -1.33479,-39.599478 -542.379372,1.779752 1.334814,35.595036 c 0,0 34.098904,-5.476949 51.168828,-4.239499 3.615737,0.262115 7.761666,3.718442 11.944673,4.489918 2.50133,0.461323 7.630443,0.03975 7.630443,0.03975 l 50.720244,0.208041 c 0,0 13.77024,-4.484468 20.91325,-4.731887 10.79924,-0.374063 21.30737,6.228048 32.03713,4.949074 7.32472,-0.873098 20.46338,-8.424631 20.46338,-8.424631"
       id="path1"
       sodipodi:nodetypes="csccscsscccccsaccssc" />
  </g>
  <g
     inkscape:groupmode="layer"
     id="layer16"
     inkscape:label="BottomEdge">
    <path
       style="fill:#6c5739;fill-opacity:1;stroke-width:0.899999"
       d="m 222.36077,255.5773 c 0,0 13.01314,6.06838 20.02015,6.6175 14.08603,1.10388 41.82701,-6.87118 41.82701,-6.87118 l 14.68088,-0.0602 c 0,0 35.56038,8.27675 53.39343,6.44411 7.00621,-0.72 20.02374,-6.74525 20.02374,-6.74525 0,0 34.84466,8.9503 52.05857,5.98641 6.34679,-1.09279 11.02542,-7.28772 17.35057,-8.49945 12.71199,-2.43526 38.71455,2.98497 38.71455,2.98497 l 46.71575,-1.10704 -1.33479,39.59948 -542.379372,-1.77975 1.33481,-35.59504 c 0,0 34.09891,5.47695 51.16883,4.2395 3.61574,-0.26211 7.76167,-3.71844 11.94467,-4.48992 2.50133,-0.46132 7.63045,-0.0397 7.63045,-0.0397 l 50.720242,-0.20804 c 0,0 13.77024,4.48447 20.91325,4.73189 10.79924,0.37406 21.30736,-6.22805 32.03712,-4.94907 7.32472,0.87309 20.46339,8.42463 20.46339,8.42463"
       id="path1-1"
       sodipodi:nodetypes="csccscsscccccsaccssc" />
  </g>
</svg>
